<?xml version="1.0" encoding="UTF-8" standalone="no"?>
<!-- Created with Inkscape (http://www.inkscape.org/) -->

<svg
   xmlns:dc="http://purl.org/dc/elements/1.1/"
   xmlns:cc="http://creativecommons.org/ns#"
   xmlns:rdf="http://www.w3.org/1999/02/22-rdf-syntax-ns#"
   xmlns:svg="http://www.w3.org/2000/svg"
   xmlns="http://www.w3.org/2000/svg"
   xmlns:sodipodi="http://sodipodi.sourceforge.net/DTD/sodipodi-0.dtd"
   xmlns:inkscape="http://www.inkscape.org/namespaces/inkscape"
   width="16px"
   height="16px"
   id="svg91320"
   version="1.1"
   inkscape:version="0.48.2 r9819"
   sodipodi:docname="New document 221">
  <defs
     id="defs91322" />
  <sodipodi:namedview
     id="base"
     pagecolor="#ffffff"
     bordercolor="#666666"
     borderopacity="1.0"
     inkscape:pageopacity="0.0"
     inkscape:pageshadow="2"
     inkscape:zoom="31.392433"
     inkscape:cx="6.8962871"
     inkscape:cy="8.8603416"
     inkscape:current-layer="layer1"
     showgrid="true"
     inkscape:grid-bbox="true"
     inkscape:document-units="px"
     inkscape:window-width="2560"
     inkscape:window-height="1468"
     inkscape:window-x="0"
     inkscape:window-y="0"
     inkscape:window-maximized="1" />
  <metadata
     id="metadata91325">
    <rdf:RDF>
      <cc:Work
         rdf:about="">
        <dc:format>image/svg+xml</dc:format>
        <dc:type
           rdf:resource="http://purl.org/dc/dcmitype/StillImage" />
        <dc:title></dc:title>
      </cc:Work>
    </rdf:RDF>
  </metadata>
  <g
     id="layer1"
     inkscape:label="Layer 1"
     inkscape:groupmode="layer">
    <path
       style="font-size:16px;font-style:normal;font-variant:normal;font-weight:normal;font-stretch:normal;text-align:start;line-height:125%;letter-spacing:0px;word-spacing:0px;writing-mode:lr-tb;text-anchor:start;fill:#000000;fill-opacity:1;stroke:none;font-family:Times New Roman;-inkscape-font-specification:'Times New Roman,'"
       d="M 8.0185413,0.06068557 2.6080412,12.663969 C 2.1411135,13.771036 1.7190644,14.530332 1.3349824,14.891821 1.1467046,15.072568 0.73388916,15.192593 0.09375,15.305566 l 0,0.44557 4.8376236,0 0,-0.44557 C 4.1933257,15.252851 3.6932838,15.160516 3.4673559,14.987301 3.2489532,14.806555 3.1490881,14.584235 3.1490912,14.350771 3.1490881,14.057063 3.2749497,13.609015 3.5310089,13.01406 l 1.0502735,-2.418812 4.5193589,0 c 0.012991,-0.0078 0.018726,-0.02405 0.031827,-0.03183 0.1049538,-0.06174 0.2859723,-0.125892 0.4137441,-0.190958 -0.1787131,0.06467 -0.363103,0.09548 -0.54105,0.09548 -0.421341,10e-6 -0.8558142,-0.195109 -1.145753,-0.5092239 l -0.031826,0 C 7.7743737,9.8985717 7.7423313,9.8346067 7.7002766,9.7677593 l -2.768903,0 2.6415971,-6.1743354 1.2094059,2.8643824 C 9.3400123,6.0740883 10.023797,5.8658055 10.787444,5.7894504 L 8.4004589,0.06068557 z"
       id="path91904" />
    <path
       style="font-size:16px;font-style:normal;font-variant:normal;font-weight:normal;font-stretch:normal;text-align:start;line-height:125%;letter-spacing:0px;word-spacing:0px;writing-mode:lr-tb;text-anchor:start;fill:#000000;fill-opacity:1;stroke:none;font-family:Times New Roman;-inkscape-font-specification:'Times New Roman,'"
       d="m 11.101904,8.268536 c -0.17809,3.8e-6 -0.234252,0.032788 -0.28817,0.082334 l -0.02059,0 c -0.07116,0.063671 -0.06153,0.071014 -0.06175,0.1029179 l 0,0.020584 0,0.3499211 0,0.020584 c -2e-6,0.27216 -0.07474,0.5688534 -0.267587,0.7821766 l -0.02059,0 0,0.020583 c -0.04736,0.048276 -0.10667,0.085503 -0.164664,0.123501 0.393705,-0.183194 0.85889,-0.3708907 1.399684,-0.5763404 -0.0075,-0.1757166 -0.01923,-0.3083787 -0.04117,-0.4322555 L 11.472408,8.371454 C 11.397272,8.3113558 11.299947,8.2685392 11.101904,8.268536 z"
       id="path91902"
       inkscape:connector-curvature="0" />
    <path
       style="font-size:16px;font-style:normal;font-variant:normal;font-weight:normal;font-stretch:normal;text-align:start;line-height:125%;letter-spacing:0px;word-spacing:0px;writing-mode:lr-tb;text-anchor:start;fill:#000000;fill-opacity:1;stroke:none;font-family:Times New Roman;-inkscape-font-specification:'Times New Roman,'"
       d="m 12.02862,11.681572 c -0.209734,0.09343 -0.621871,0.236798 -0.692904,0.277162 l 0,0.02772 c -0.07057,0.03931 -0.105339,0.07263 -0.166297,0.110865 l 0.277162,0.692904 c 0.108394,0.257448 0.185838,0.464849 0.249445,0.665188 0.110161,-0.06872 0.216087,-0.114456 0.332594,-0.194013 z"
       id="path91333"
       inkscape:connector-curvature="0" />
    <path
       style="font-size:16px;font-style:normal;font-variant:normal;font-weight:normal;font-stretch:normal;text-align:start;line-height:125%;letter-spacing:0px;word-spacing:0px;writing-mode:lr-tb;text-anchor:start;fill:#000000;fill-opacity:1;stroke:none;font-family:Times New Roman;-inkscape-font-specification:'Times New Roman,'"
       inkscape:connector-curvature="0"
       id="path91898"
       d="m 12.790141,14.404803 c -0.923802,0.714142 -1.503632,1.126904 -1.739492,1.238283 -0.353799,0.163794 -0.730524,0.245691 -1.1301791,0.245691 -0.6224188,0 -1.1367316,-0.212933 -1.5429392,-0.638797 -0.3996579,-0.425865 -0.5994864,-0.986039 -0.5994864,-1.680527 0,-0.438965 0.09828,-0.818967 0.2948292,-1.140006 0.2686215,-0.445517 0.7337962,-0.864829 1.3955251,-1.257938 0.6682774,-0.393102 1.7755224,-0.87138 3.3217424,-1.4348349 l 0,-0.3537961 c -4e-6,-0.8975843 -0.144143,-1.5134491 -0.432415,-1.8475968 -0.281731,-0.3341314 -0.694492,-0.501201 -1.238283,-0.5012097 -0.412765,8.7e-6 -0.740353,0.1113892 -0.982765,0.3341399 -0.2489695,0.222768 -0.3734523,0.4782864 -0.3734502,0.766556 l 0.019656,0.5700033 c -2e-6,0.3013876 -0.078624,0.5339751 -0.2358621,0.6977626 C 9.3963292,9.5663333 9.1965007,9.64823 8.9475352,9.6482243 8.7051183,9.64823 8.5052898,9.5630577 8.3480487,9.3927056 8.1973583,9.2223663 8.1220125,8.989779 8.1220136,8.6949431 8.1220125,8.1314991 8.4102891,7.6139105 8.9868462,7.1421756 9.5633983,6.6704578 10.37254,6.4345945 11.414273,6.4345853 c 0.79931,9.2e-6 1.454485,0.1343202 1.965527,0.4029334 0.386549,0.2031132 0.67155,0.5208733 0.855006,0.9532812 0.11792,0.2817334 0.176891,0.8582879 0.176898,1.7296651 l 0,3.056396 c -7e-6,0.858284 0.01637,1.385699 0.04913,1.582251 0.03275,0.190002 0.08516,0.317762 0.157242,0.383277 0.0786,0.06552 0.167063,0.09828 0.265346,0.09828 0.104828,10e-7 0.196545,-0.02293 0.275176,-0.0688 0.137577,-0.08517 0.402925,-0.32431 0.796037,-0.717416 l 0,0.550347 c -0.733804,0.982765 -1.434842,1.474145 -2.103115,1.474145 -0.321042,0 -0.576561,-0.111372 -0.766557,-0.334139 -0.190005,-0.22276 -0.288282,-0.602761 -0.294829,-1.140006 m 0,-0.638797 0,-3.429847 c -0.989321,0.39311 -1.628116,0.67156 -1.916389,0.835349 -0.517593,0.288281 -0.8877665,0.589662 -1.1105233,0.904142 -0.2227629,0.314489 -0.3341423,0.658457 -0.3341403,1.031904 -2e-6,0.47173 0.1408614,0.864835 0.4225893,1.179317 0.2817223,0.307934 0.6060343,0.461899 0.9729353,0.461898 0.497929,10e-7 1.153107,-0.327585 1.965528,-0.982763" />
  </g>
</svg>
